<svg width="15" height="15" viewBox="0 0 15 15" fill="none" xmlns="http://www.w3.org/2000/svg">
<path fill-rule="evenodd" clip-rule="evenodd" d="M7.5 0C3.35786 0 0 3.35786 0 7.5C0 11.6421 3.35786 15 7.5 15C11.6421 15 15 11.6421 15 7.5C15 3.35786 11.6421 0 7.5 0ZM6.40962 10.3458C6.54325 10.446 6.77976 10.4961 7.11917 10.4961H12.086C12.4281 10.4961 12.6659 10.446 12.7996 10.3458C12.9332 10.2482 13 10.1081 13 9.92566C13 9.67896 12.9212 9.41942 12.7635 9.14703C12.6058 8.87463 12.3786 8.62023 12.082 8.38381C11.7853 8.14482 11.4272 7.95081 11.0077 7.80176C10.5907 7.65272 10.1231 7.57819 9.60459 7.57819C9.08613 7.57819 8.6171 7.65272 8.19752 7.80176C7.78061 7.95081 7.42383 8.14482 7.12719 8.38381C6.83054 8.62023 6.60338 8.87463 6.4457 9.14703C6.28802 9.41942 6.20918 9.67896 6.20918 9.92566C6.20918 10.1081 6.276 10.2482 6.40962 10.3458ZM8.79082 6.67236C9.03669 6.82397 9.30794 6.89978 9.60459 6.89978C9.90124 6.89978 10.1725 6.82397 10.4184 6.67236C10.6642 6.51817 10.8607 6.31131 11.0077 6.05176C11.1573 5.79222 11.2321 5.50184 11.2321 5.18062C11.2321 4.86454 11.1573 4.58058 11.0077 4.32874C10.8607 4.07434 10.6642 3.87261 10.4184 3.72357C10.1725 3.57452 9.90124 3.5 9.60459 3.5C9.31062 3.5 9.0407 3.57581 8.79482 3.72742C8.54895 3.87647 8.35119 4.07948 8.20153 4.33645C8.05187 4.59086 7.97704 4.87353 7.97704 5.18447C7.97704 5.50569 8.05053 5.79607 8.19752 6.05562C8.34718 6.31259 8.54495 6.51817 8.79082 6.67236ZM2.17238 10.3304C2.28729 10.4435 2.48506 10.5 2.76567 10.5H5.74016C5.63326 10.3484 5.57714 10.1685 5.57179 9.96035C5.56912 9.75477 5.61054 9.53763 5.69606 9.30892C5.78426 9.07764 5.9112 8.85151 6.0769 8.63051C6.24259 8.40951 6.44169 8.21035 6.6742 8.03304C6.45773 7.89941 6.20517 7.78891 5.91655 7.70154C5.63059 7.6116 5.31122 7.56663 4.95845 7.56663C4.51215 7.56663 4.10726 7.6373 3.7438 7.77863C3.38302 7.91997 3.07167 8.10371 2.80977 8.32985C2.55053 8.55598 2.3501 8.80396 2.20845 9.07379C2.06948 9.34104 2 9.60316 2 9.86013C2 10.0631 2.05746 10.2199 2.17238 10.3304ZM4.24891 6.788C4.46538 6.91905 4.7019 6.98458 4.95845 6.98458C5.21769 6.98458 5.4542 6.91905 5.668 6.788C5.8818 6.65437 6.05284 6.47449 6.18112 6.24835C6.3094 6.01964 6.37354 5.76652 6.37354 5.48899C6.37354 5.21402 6.30807 4.96604 6.17711 4.74504C6.04883 4.52405 5.87646 4.3493 5.65999 4.22082C5.44619 4.08976 5.21234 4.02423 4.95845 4.02423C4.70457 4.02423 4.46939 4.08976 4.25292 4.22082C4.03912 4.35187 3.86674 4.52918 3.73579 4.75275C3.60751 4.97375 3.54337 5.22045 3.54337 5.49284C3.54337 5.77037 3.60751 6.02221 3.73579 6.24835C3.86407 6.47449 4.03511 6.65437 4.24891 6.788Z" fill="#F1B43D"/>
</svg>
