<svg width="15" height="15" viewBox="0 0 15 15" fill="none" xmlns="http://www.w3.org/2000/svg">
<path fill-rule="evenodd" clip-rule="evenodd" d="M7.5 0C3.35786 0 0 3.35786 0 7.5C0 11.6421 3.35786 15 7.5 15C11.6421 15 15 11.6421 15 7.5C15 3.35786 11.6421 0 7.5 0ZM11 2.92954V4.5C11.0001 4.62215 10.9981 4.78267 10.9966 4.90789C10.9957 4.98877 10.9949 5.05493 10.9949 5.08652L10.995 5.13971V9.17856C10.995 9.48653 10.9397 9.75491 10.8291 9.98369C10.7186 10.2154 10.5717 10.4061 10.3885 10.5556C10.2085 10.7052 10.0095 10.8167 9.79152 10.89C9.57674 10.9633 9.36511 11 9.15664 11C8.73023 11 8.3812 10.8856 8.10956 10.6568C7.84107 10.428 7.70683 10.1318 7.70683 9.76811C7.70683 9.40734 7.82844 9.10963 8.07165 8.87498C8.31803 8.6374 8.68917 8.47022 9.18507 8.37343L9.94788 8.22824C10.1248 8.19304 10.2037 8.08452 10.1848 7.90267L10.1821 5.11429L6.48936 6.38893C6.39165 6.40946 6.33176 6.43293 6.30969 6.45932C6.29078 6.48572 6.28132 6.54585 6.28132 6.63971V10.6786C6.28132 10.9865 6.22616 11.2549 6.11584 11.4837C6.00552 11.7154 5.85894 11.9061 5.67612 12.0556C5.49645 12.2052 5.29787 12.3167 5.08038 12.39C4.86604 12.4633 4.65485 12.5 4.44681 12.5C4.02128 12.5 3.67297 12.3856 3.40189 12.1568C3.13396 11.928 3 11.6318 3 11.2681C3 10.9073 3.12136 10.6096 3.36407 10.375C3.60993 10.1374 3.9803 9.97022 4.47518 9.87343L5.23641 9.72824C5.41292 9.69304 5.49173 9.58452 5.47281 9.40267L5.46809 4.54109C5.46809 4.25658 5.64775 4.07766 6.00709 4.00434L10.4468 2.51158C10.595 2.48225 10.7242 2.50864 10.8345 2.59077C10.9448 2.6729 11 2.78582 11 2.92954Z" fill="#C342FF"/>
</svg>
