<svg width="15" height="15" viewBox="0 0 15 15" fill="none" xmlns="http://www.w3.org/2000/svg">
<path fill-rule="evenodd" clip-rule="evenodd" d="M7.5 0C3.35786 0 0 3.35786 0 7.5C0 11.6421 3.35786 15 7.5 15C11.6421 15 15 11.6421 15 7.5C15 3.35786 11.6421 0 7.5 0ZM5.00551 12.3696C5.08491 12.4565 5.19372 12.5 5.33194 12.5C5.42898 12.5 5.51867 12.4776 5.60101 12.4327C5.6863 12.3878 5.78628 12.3149 5.90097 12.2139L7.53308 10.8212H10.3915C10.8385 10.8212 11.2178 10.7412 11.5296 10.5813C11.8442 10.4215 12.0839 10.1914 12.2486 9.8913C12.4162 9.59116 12.5 9.23071 12.5 8.80996V5.51543C12.5 5.09467 12.4162 4.73422 12.2486 4.43408C12.0839 4.13394 11.8442 3.90393 11.5296 3.74404C11.2178 3.58135 10.8385 3.5 10.3915 3.5H4.60851C4.16446 3.5 3.78511 3.58135 3.47045 3.74404C3.15579 3.90393 2.91464 4.13394 2.74702 4.43408C2.58234 4.73422 2.5 5.09467 2.5 5.51543V8.80996C2.5 9.23071 2.58381 9.59116 2.75143 9.8913C2.922 10.1914 3.16167 10.4215 3.47045 10.5813C3.77922 10.7412 4.14241 10.8212 4.55999 10.8212H4.89082V12.0245C4.89082 12.1704 4.92905 12.2854 5.00551 12.3696Z" fill="#6EBB20"/>
</svg>
